<svg width="24" height="24" viewBox="0 0 24 24" fill="none" xmlns="http://www.w3.org/2000/svg">
<path d="M9.55783 5.57227C10.7135 5.57227 10.8692 5.61001 12.0248 5.68549C13.6838 5.79386 15.1027 6.91706 15.5891 8.5068L15.811 9.22979C15.8546 9.12311 15.9345 9.03205 16.0407 8.97619L16.125 8.9412L16.6967 8.76261C16.9603 8.68028 17.2407 8.82721 17.3231 9.09079C17.3963 9.32509 17.2883 9.57269 17.0783 9.68264L16.9949 9.71713L16.4232 9.89571C16.2724 9.9428 16.1162 9.9149 15.9946 9.83309L16.1803 10.4364C17.0928 10.6676 17.7257 11.3375 17.6836 12.1278L17.5001 15.5783L17.5032 15.5788V17.3506C17.5032 18.179 16.8316 18.8506 16.0032 18.8506H15.6699C14.8414 18.8506 14.1699 18.179 14.1699 17.3506L14.1691 16.5723H4.40131L4.40164 17.3641C4.40164 18.1925 3.73007 18.8641 2.90164 18.8641H2.56831C1.73988 18.8641 1.06831 18.1925 1.06831 17.3641L1.06628 15.7159L0.874298 12.1278C0.83218 11.3376 1.46492 10.6679 2.37717 10.4365L2.56125 9.83725C2.44062 9.91584 2.28714 9.94199 2.13898 9.89571L1.56727 9.71713C1.30369 9.63479 1.15676 9.35437 1.2391 9.09079C1.32143 8.82721 1.60185 8.68028 1.86543 8.76261L2.43714 8.9412C2.58358 8.98694 2.69401 9.09382 2.74913 9.22498L2.96883 8.50681C3.45518 6.91705 4.87416 5.79385 6.53312 5.68549C7.68877 5.61001 8.40218 5.57227 9.55783 5.57227ZM3.40109 16.592H2.06809L2.06831 17.3641C2.06831 17.6096 2.24518 17.8137 2.47843 17.8561L2.56831 17.8641H2.90164C3.1471 17.8641 3.35125 17.6872 3.39358 17.454L3.40164 17.3641L3.40109 16.592ZM16.5028 16.578H15.1698L15.1699 17.3506C15.1699 17.5961 15.3467 17.8002 15.58 17.8425L15.6699 17.8506H16.0032C16.2487 17.8506 16.4528 17.6737 16.4951 17.4405L16.5032 17.3506L16.5028 16.578ZM9.55783 10.7748C6.60136 10.7748 4.74334 10.9554 3.1068 11.3129C3.05649 11.3239 3.00631 11.3269 2.95756 11.3228L2.62302 11.4058C2.17139 11.5204 1.9142 11.7662 1.87707 11.998L1.87288 12.0746L2.06031 15.5923C2.06909 15.5757 2.07879 15.5691 2.09485 15.5672L2.22231 15.5723H16.3356L16.4631 15.5672C16.4738 15.5685 16.4817 15.5718 16.487 15.5787L16.4981 15.5783L16.685 12.0746C16.6971 11.8476 16.4862 11.5905 16.078 11.4486L15.9346 11.4057L15.5997 11.3228C15.5512 11.3269 15.5012 11.3239 15.4511 11.3129C13.8146 10.9554 12.5143 10.7748 9.55783 10.7748ZM13.5795 11.6374C14.4725 11.6374 15.1906 12.376 15.1906 13.2802C15.1906 14.1845 14.4725 14.9231 13.5795 14.9231C12.6865 14.9231 11.9684 14.1845 11.9684 13.2802C11.9684 12.376 12.6865 11.6374 13.5795 11.6374ZM4.99917 11.6374C5.89216 11.6374 6.61028 12.376 6.61028 13.2802C6.61028 14.1845 5.89216 14.9231 4.99917 14.9231C4.10617 14.9231 3.38805 14.1845 3.38805 13.2802C3.38805 12.376 4.10617 11.6374 4.99917 11.6374ZM10.2286 13.3909C10.5047 13.3909 10.7286 13.6148 10.7286 13.8909C10.7286 14.1364 10.5517 14.3405 10.3184 14.3829L10.2286 14.3909H8.33748C8.06134 14.3909 7.83748 14.1671 7.83748 13.8909C7.83748 13.6455 8.01436 13.4413 8.24761 13.399L8.33748 13.3909H10.2286ZM13.5795 12.6374C13.2452 12.6374 12.9684 12.9221 12.9684 13.2802C12.9684 13.6384 13.2452 13.9231 13.5795 13.9231C13.9138 13.9231 14.1906 13.6384 14.1906 13.2802C14.1906 12.9221 13.9138 12.6374 13.5795 12.6374ZM4.99917 12.6374C4.66486 12.6374 4.38805 12.9221 4.38805 13.2802C4.38805 13.6384 4.66486 13.9231 4.99917 13.9231C5.33347 13.9231 5.61028 13.6384 5.61028 13.2802C5.61028 12.9221 5.33347 12.6374 4.99917 12.6374ZM9.55783 6.57227C8.42393 6.57227 7.73227 6.6093 6.5983 6.68337C5.41956 6.76036 4.40236 7.52047 3.98826 8.61457L3.9249 8.79995L3.48901 10.2181C5.14459 9.9217 6.87093 9.77481 9.55783 9.77481C12.2442 9.77481 13.4124 9.92164 15.0679 10.2179L14.6328 8.79935C14.2681 7.60704 13.2038 6.76465 11.9596 6.68337C10.8257 6.6093 10.6917 6.57227 9.55783 6.57227Z" fill="#3E3E52"/>
<path d="M18.7999 5.95148C18.9999 5.25148 19.5999 4.85148 20.2999 5.05148C20.9999 5.25148 21.3999 5.85148 21.1999 6.55148C20.9999 7.25148 20.2999 7.85148 19.5999 7.75148C18.9999 7.55148 18.5999 6.65148 18.7999 5.95148ZM23.9999 10.7515C23.9999 11.0515 23.7999 11.2515 23.4999 11.2515H21.6999C21.2999 11.2515 20.8999 11.0515 20.6999 10.8515L19.8999 10.1515L19.7999 12.6515L21.4999 14.3515C21.7999 14.6515 21.9999 15.0515 21.9999 15.5515L21.7999 18.7515C21.7999 19.0515 21.5999 19.2515 21.2999 19.2515C20.9999 19.2515 20.7999 19.0515 20.7999 18.7515L20.9999 15.5515C20.9999 15.4515 20.9999 15.2515 20.7999 15.1515L19.6999 14.0515V14.5515C19.6999 15.0515 19.3999 15.5515 18.8999 15.7515L18.3999 15.8515V14.7515C18.5999 14.6515 18.6999 14.5515 18.6999 14.3515L18.8999 10.1515L18.3999 10.6515V9.25148L19.1999 8.45148L19.2999 8.35148C19.4999 8.25148 19.7999 8.25148 19.8999 8.45148C19.9999 8.55148 19.9999 8.55148 19.9999 8.65148L21.3999 10.0515C21.4999 10.1515 21.5999 10.1515 21.6999 10.1515H23.4999C23.6999 10.2515 23.9999 10.4515 23.9999 10.7515Z" fill="#3E3E52"/>
</svg>
