<svg width="24" height="24" viewBox="0 0 24 24" fill="none" xmlns="http://www.w3.org/2000/svg">
<path d="M10.0001 5.57227C11.1557 5.57227 11.3114 5.61001 12.4671 5.68549C14.126 5.79386 15.545 6.91706 16.0313 8.5068L16.2533 9.22979C16.2968 9.12311 16.3768 9.03205 16.4829 8.97619L16.5673 8.9412L17.139 8.76261C17.4026 8.68028 17.683 8.82721 17.7653 9.09079C17.8385 9.32509 17.7305 9.57269 17.5205 9.68264L17.4371 9.71713L16.8654 9.89571C16.7147 9.9428 16.5584 9.9149 16.4369 9.83309L16.6225 10.4364C17.535 10.6676 18.168 11.3375 18.1259 12.1278L17.9423 15.5783L17.9454 15.5788V17.3506C17.9454 18.179 17.2739 18.8506 16.4454 18.8506H16.1121C15.2837 18.8506 14.6121 18.179 14.6121 17.3506L14.6113 16.5723H4.40131L4.40164 17.3641C4.40164 18.1925 3.73007 18.8641 2.90164 18.8641H2.56831C1.73988 18.8641 1.06831 18.1925 1.06831 17.3641L1.06628 15.7159L0.874298 12.1278C0.83218 11.3376 1.46492 10.6679 2.37717 10.4365L2.56125 9.83725C2.44062 9.91584 2.28714 9.94199 2.13898 9.89571L1.56727 9.71713C1.30369 9.63479 1.15676 9.35437 1.2391 9.09079C1.32143 8.82721 1.60185 8.68028 1.86543 8.76261L2.43714 8.9412C2.58358 8.98694 2.69401 9.09382 2.74913 9.22498L2.96883 8.50681C3.45518 6.91705 4.87416 5.79385 6.53312 5.68549C7.68877 5.61001 8.84443 5.57227 10.0001 5.57227ZM3.40109 16.592H2.06809L2.06831 17.3641C2.06831 17.6096 2.24518 17.8137 2.47843 17.8561L2.56831 17.8641H2.90164C3.1471 17.8641 3.35125 17.6872 3.39358 17.454L3.40164 17.3641L3.40109 16.592ZM16.9451 16.578H15.6121L15.6121 17.3506C15.6121 17.5961 15.789 17.8002 16.0222 17.8425L16.1121 17.8506H16.4454C16.6909 17.8506 16.8951 17.6737 16.9374 17.4405L16.9454 17.3506L16.9451 16.578ZM10.0001 10.7748C7.04361 10.7748 4.74334 10.9554 3.1068 11.3129C3.05649 11.3239 3.00631 11.3269 2.95756 11.3228L2.62302 11.4058C2.17139 11.5204 1.9142 11.7662 1.87707 11.998L1.87288 12.0746L2.06031 15.5923C2.06909 15.5757 2.07879 15.5691 2.09485 15.5672L2.22231 15.5723H16.7779L16.9053 15.5672C16.916 15.5685 16.9239 15.5718 16.9293 15.5787L16.9403 15.5783L17.1273 12.0746C17.1394 11.8476 16.9285 11.5905 16.5202 11.4486L16.3768 11.4057L16.0419 11.3228C15.9934 11.3269 15.9434 11.3239 15.8934 11.3129C14.2568 10.9554 12.9566 10.7748 10.0001 10.7748ZM14.0218 11.6374C14.9148 11.6374 15.6329 12.376 15.6329 13.2802C15.6329 14.1845 14.9148 14.9231 14.0218 14.9231C13.1288 14.9231 12.4107 14.1845 12.4107 13.2802C12.4107 12.376 13.1288 11.6374 14.0218 11.6374ZM4.99917 11.6374C5.89216 11.6374 6.61028 12.376 6.61028 13.2802C6.61028 14.1845 5.89216 14.9231 4.99917 14.9231C4.10617 14.9231 3.38805 14.1845 3.38805 13.2802C3.38805 12.376 4.10617 11.6374 4.99917 11.6374ZM10.6708 13.3909C10.947 13.3909 11.1708 13.6148 11.1708 13.8909C11.1708 14.1364 10.9939 14.3405 10.7607 14.3829L10.6708 14.3909H8.33748C8.06134 14.3909 7.83748 14.1671 7.83748 13.8909C7.83748 13.6455 8.01436 13.4413 8.24761 13.399L8.33748 13.3909H10.6708ZM14.0218 12.6374C13.6875 12.6374 13.4107 12.9221 13.4107 13.2802C13.4107 13.6384 13.6875 13.9231 14.0218 13.9231C14.3561 13.9231 14.6329 13.6384 14.6329 13.2802C14.6329 12.9221 14.3561 12.6374 14.0218 12.6374ZM4.99917 12.6374C4.66486 12.6374 4.38805 12.9221 4.38805 13.2802C4.38805 13.6384 4.66486 13.9231 4.99917 13.9231C5.33347 13.9231 5.61028 13.6384 5.61028 13.2802C5.61028 12.9221 5.33347 12.6374 4.99917 12.6374ZM10.0001 6.57227C8.86619 6.57227 7.73227 6.6093 6.5983 6.68337C5.41956 6.76036 4.40236 7.52047 3.98826 8.61457L3.9249 8.79995L3.48901 10.2181C5.14459 9.9217 7.31319 9.77481 10.0001 9.77481C12.6864 9.77481 13.8547 9.92164 15.5101 10.2179L15.0751 8.79935C14.7103 7.60704 13.6461 6.76465 12.4019 6.68337C11.2679 6.6093 11.134 6.57227 10.0001 6.57227Z" fill="#3E3E52"/>
<path d="M19.5 5.95148C19.7 5.25148 20.3 4.85148 21 5.05148C21.7 5.25148 22.1 5.85148 21.9 6.55148C21.7 7.25148 21 7.85148 20.3 7.75148C19.7 7.55148 19.4 6.65148 19.5 5.95148ZM23.7419 12.1L23.1419 10.4515C22.9893 10.0967 22.9419 10.1515 22.8419 9.95148L21.2 8.65148C21 8.45148 20.7 8.45148 20.5 8.65148C20.4 8.75148 20.4 8.75148 20.4 8.85148L19 10.2515V10.6515V11.3515C19.2 11.2515 19.5 11.1515 19.6 10.9515L20.5 10.0515L20.7 12.5515L19 14.0515V17.8515C19.3 17.8515 19.5 17.6515 19.5 17.3515V15.2515C19.5 15.1515 19.6 14.9515 19.7 14.8515L20.8 13.8515L20.9 15.8515C20.9 15.9515 20.9 15.9515 20.9 16.0515L21.4 18.6515C21.4 18.9515 21.7 19.1515 22 19.0515C22.3 18.9515 22.5 18.7515 22.4 18.4515L21.9 15.8515L21.5 10.2515L22.1419 10.6515C22.1419 10.6515 22.2419 10.7515 22.2419 10.8515L22.8419 12.5C22.9419 12.8 23.2419 12.9 23.5419 12.8C23.7419 12.6 23.8419 12.3 23.7419 12.1Z" fill="#3E3E52"/>
</svg>
