<svg width="44" height="44" viewBox="0 0 44 44" fill="none" xmlns="http://www.w3.org/2000/svg">
<rect width="44" height="44" rx="22" fill="#E3FFF2"/>
<path d="M21.9854 15.3333C24.7664 15.3333 27.5476 15.6873 30.329 16.3955C30.9199 16.5459 31.3334 17.0779 31.3334 17.6876V17.9999C33.5426 17.9999 35.3334 19.7908 35.3334 21.9999C35.3334 24.2091 33.5426 25.9999 31.3334 25.9999V26.3147C31.3334 26.9234 30.9211 27.4548 30.3315 27.6062C27.5772 28.3131 24.809 28.6666 22.0268 28.6666C19.242 28.6666 16.4568 28.3124 13.6714 27.6041C13.0805 27.4538 12.6667 26.9217 12.6667 26.3119V25.9999C10.4576 25.9999 8.66675 24.2091 8.66675 21.9999C8.66675 19.7908 10.4576 17.9999 12.6667 17.9999V17.686C12.6667 17.077 13.0795 16.5453 13.6695 16.3944C16.4339 15.687 19.2058 15.3333 21.9854 15.3333ZM21.9854 16.6666C19.5848 16.6666 17.1894 16.9416 14.7973 17.4923L14.0001 17.6861V26.3119C16.6789 26.9931 19.3537 27.3333 22.0268 27.3333C24.4296 27.3333 26.8219 27.0585 29.2058 26.5083L30.0001 26.3147V17.6876C27.3253 17.0066 24.6546 16.6666 21.9854 16.6666ZM27.2015 24.2799C27.5624 24.207 27.914 24.4405 27.9869 24.8014C28.0598 25.1623 27.8263 25.514 27.4654 25.5869C25.6612 25.9512 23.8506 26.1334 22.034 26.1334C20.2182 26.1334 18.386 25.9513 16.538 25.5875C16.1767 25.5164 15.9415 25.1659 16.0126 24.8046C16.0838 24.4433 16.4343 24.2081 16.7955 24.2793C18.5595 24.6266 20.3055 24.8 22.034 24.8C23.7616 24.8 25.4839 24.6267 27.2015 24.2799ZM31.3334 19.3333V24.6666C32.8062 24.6666 34.0001 23.4727 34.0001 21.9999C34.0001 20.5272 32.8062 19.3333 31.3334 19.3333ZM12.6667 19.3333C11.194 19.3333 10.0001 20.5272 10.0001 21.9999C10.0001 23.4727 11.194 24.6666 12.6667 24.6666V19.3333ZM27.3334 21.3333C27.7016 21.3333 28.0001 21.6317 28.0001 21.9999C28.0001 22.3272 27.7642 22.5994 27.4533 22.6558L27.3334 22.6666H16.6667C16.2986 22.6666 16.0001 22.3681 16.0001 21.9999C16.0001 21.6726 16.2359 21.4004 16.5469 21.344L16.6667 21.3333H27.3334ZM22.034 18.0402C23.8506 18.0402 25.6612 18.2224 27.4654 18.5867C27.8263 18.6596 28.0598 19.0112 27.9869 19.3721C27.914 19.733 27.5624 19.9665 27.2015 19.8936C25.4839 19.5468 23.7616 19.3735 22.034 19.3735C20.3055 19.3735 18.5595 19.547 16.7955 19.8943C16.4343 19.9654 16.0838 19.7302 16.0126 19.3689C15.9415 19.0077 16.1767 18.6572 16.538 18.5861C18.386 18.2222 20.2182 18.0402 22.034 18.0402Z" fill="#3E3E52"/>
</svg>
