<svg width="44" height="44" viewBox="0 0 44 44" fill="none" xmlns="http://www.w3.org/2000/svg">
<rect width="44" height="44" rx="22" fill="#E3FFF2"/>
<path d="M27.3333 8.66675C28.8061 8.66675 30 9.86066 30 11.3334V32.6667C30 34.1395 28.8061 35.3334 27.3333 35.3334H16.6667C15.1939 35.3334 14 34.1395 14 32.6667V11.3334C14 9.86066 15.1939 8.66675 16.6667 8.66675H27.3333ZM27.3333 10.0001H16.6667C15.9829 10.0001 15.4193 10.5148 15.3423 11.1779L15.3333 11.3334V32.6667C15.3333 33.3505 15.8481 33.9141 16.5112 33.9911L16.6667 34.0001H27.3333C28.0171 34.0001 28.5807 33.4854 28.6577 32.8222L28.6667 32.6667V11.3334C28.6667 10.6496 28.1519 10.0861 27.4888 10.0091L27.3333 10.0001ZM23.3333 31.3334C23.7015 31.3334 24 31.6319 24 32.0001C24 32.3274 23.7642 32.5996 23.4532 32.656L23.3333 32.6667H20.6667C20.2985 32.6667 20 32.3683 20 32.0001C20 31.6728 20.2358 31.4006 20.5468 31.3442L20.6667 31.3334H23.3333ZM22 10.6731C22.3682 10.6731 22.6667 10.9716 22.6667 11.3398C22.6667 11.708 22.3682 12.0064 22 12.0064C21.6318 12.0064 21.3333 11.708 21.3333 11.3398C21.3333 10.9716 21.6318 10.6731 22 10.6731Z" fill="#3E3E52"/>
<path d="M22.3126 15.4459C22.7071 15.8939 23.3502 16.4859 24.2826 16.8966C25.1848 17.294 26.0096 17.3623 26.5767 17.3573C26.9462 17.3541 27.0957 17.5672 27.1298 17.7339L27.19 18.0558L27.2497 18.4565C27.4063 19.6766 27.4276 21.595 26.544 23.6493C25.1882 26.7989 22.6389 28.0917 22.0002 28.3922L21.7329 28.2603L21.47 28.1185C20.4601 27.5505 18.5617 26.2169 17.4565 23.6493C16.3773 21.1419 16.6474 18.8368 16.8658 17.7572C16.9017 17.5798 17.0527 17.3573 17.3117 17.3541L17.6873 17.3445C18.2328 17.3206 18.9473 17.2361 19.7185 16.8966C20.6523 16.4851 21.2959 15.8915 21.6902 15.4432C21.8201 15.2954 22.1816 15.297 22.3126 15.4459ZM22.0001 17.0082L21.9016 17.0957C21.4234 17.4955 20.8778 17.8427 20.2558 18.1169C19.5975 18.4067 19.0106 18.5574 18.3627 18.6298L18.0681 18.6562L18.0602 18.7094C17.9009 19.988 18.0081 21.3589 18.5288 22.7441L18.6811 23.1222C19.1996 24.3266 19.9518 25.2998 20.8613 26.0737C21.2096 26.3701 21.5427 26.6088 21.8639 26.8058L22.0001 26.8855L22.1365 26.8058C22.3774 26.6581 22.625 26.4868 22.8807 26.2854L23.1391 26.0737C24.0486 25.2998 24.8008 24.3266 25.3191 23.1225C25.9193 21.7273 26.0881 20.341 25.9755 19.0426L25.9334 18.6668L25.8809 18.6639C25.2913 18.6129 24.701 18.4871 24.1041 18.2631L23.7451 18.1168C23.1241 17.8432 22.5791 17.4967 22.1013 17.0976L22.0001 17.0082ZM24.8635 19.7985C25.0947 20.0301 25.12 20.3894 24.9398 20.649L24.8625 20.7413L22.1903 23.4079C21.9663 23.6315 21.6219 23.6631 21.364 23.5002L21.2593 23.4185L19.9315 22.152C19.6651 21.8979 19.6551 21.4759 19.9092 21.2095C20.1351 20.9727 20.4936 20.9385 20.7576 21.1123L20.8518 21.1872L21.7081 22.0042L23.9207 19.7975C24.1813 19.5374 24.6034 19.5378 24.8635 19.7985Z" fill="#3E3E52"/>
</svg>
