<svg width="44" height="44" viewBox="0 0 44 44" fill="none" xmlns="http://www.w3.org/2000/svg">
<rect width="44" height="44" rx="22" fill="#E3FFF2"/>
<path d="M27.85 9.33325C27.9591 9.33325 28.0659 9.36 28.1614 9.41045L28.2528 9.46867L31.5789 11.9904C31.8723 12.2128 31.9298 12.631 31.7073 12.9244C31.5096 13.1852 31.1572 13.2596 30.8753 13.1167L30.7733 13.0529L27.6268 10.6666H21.9991L22.0001 13.9999H23.3334C24.0172 13.9999 24.5808 14.5146 24.6578 15.1778L24.6668 15.3333L24.6658 16.6653L25.9184 16.6666C26.6022 16.6666 27.1657 17.1813 27.2427 17.8444L27.2511 18.0395L26.297 34.0791C26.255 34.7835 25.6716 35.3333 24.966 35.3333H16.3675C15.6619 35.3333 15.0785 34.7835 15.0366 34.0791L14.0842 18.0791C14.0404 17.3441 14.6009 16.7127 15.3359 16.6689L16.6658 16.6679L16.6668 15.3333C16.6668 14.6495 17.1815 14.0859 17.8446 14.0089L18.0001 13.9999H19.3334L19.3325 10.6666H15.3334C15.0062 10.6666 14.734 10.4308 14.6775 10.1198L14.6668 9.99992C14.6668 9.67264 14.9026 9.40044 15.2136 9.34399L15.3334 9.33325H27.85ZM25.9184 17.9999H15.4152L16.3675 33.9999H24.966L25.9184 17.9999ZM20.6668 21.6852L21.8593 24.0703L22.1409 24.6518C24.0166 28.6595 23.871 31.3333 20.6668 31.3333C17.5388 31.3333 17.3256 28.7853 19.0621 24.9357L19.1926 24.6518L19.4742 24.0703L20.6668 21.6852ZM20.6668 24.6666C18.889 28.2221 18.889 29.9999 20.6668 29.9999C22.4445 29.9999 22.4445 28.2221 20.6668 24.6666ZM31.3334 15.0185L32.526 17.4036L32.8076 17.9851C34.6833 21.9928 34.5376 24.6666 31.3334 24.6666C28.2055 24.6666 27.9922 22.1186 29.7287 18.2691L29.8593 17.9851L30.1409 17.4036L31.3334 15.0185ZM31.3334 17.9999C29.5557 21.5555 29.5557 23.3333 31.3334 23.3333C33.1112 23.3333 33.1112 21.5555 31.3334 17.9999ZM23.3334 15.3333H18.0001V16.6666H23.3334V15.3333Z" fill="#3E3E52"/>
</svg>
