<svg width="44" height="44" viewBox="0 0 44 44" fill="none" xmlns="http://www.w3.org/2000/svg">
<rect width="44" height="44" rx="22" fill="#E3FFF2"/>
<path d="M35.3334 15.3334C33.8668 15.3334 32.6668 16.5334 32.6668 18.0001C32.6668 16.5334 31.4668 15.3334 30.0001 15.3334C31.4668 15.3334 32.6668 14.1334 32.6668 12.6667C32.6668 14.1334 33.8668 15.3334 35.3334 15.3334ZM12.6668 28.6667C14.1334 28.6667 15.3334 29.8667 15.3334 31.3334C15.3334 29.8667 16.5334 28.6667 18.0001 28.6667C16.5334 28.6667 15.3334 27.4667 15.3334 26.0001C15.3334 27.4667 14.1334 28.6667 12.6668 28.6667ZM32.6668 23.3334V23.4667L31.4668 32.8001C31.3334 33.4667 30.8001 34.0001 30.1334 34.0001H24.5334C23.8668 34.0001 23.3334 33.4667 23.2001 32.8001L22.0001 23.4667C21.8668 22.8001 22.4001 22.1334 23.2001 22.0001H23.3334H23.6001L23.7334 21.0667C23.7334 20.4001 24.4001 19.8667 25.0668 19.8667H25.2001L26.5334 20.0001C26.6668 20.0001 26.8001 20.0001 26.9334 20.0001L29.3334 19.4667L30.0001 19.2001C30.4001 19.0667 30.8001 19.3334 30.9334 19.6001L31.3334 22.0001C32.1334 22.0001 32.6668 22.5334 32.6668 23.3334ZM24.8001 22.0001H30.0001L29.7334 20.6667H29.6001L27.2001 21.2001C26.9334 21.3334 26.5334 21.3334 26.2668 21.2001L24.9334 21.0667L24.8001 22.0001ZM31.3334 23.3334H23.3334L24.5334 32.6667H30.1334L31.3334 23.3334ZM24.6668 14.0001C24.6668 12.5334 25.8668 11.3334 27.3334 11.3334C25.8668 11.3334 24.6668 10.1334 24.6668 8.66675C24.6668 10.1334 23.4668 11.3334 22.0001 11.3334C23.4668 11.3334 24.6668 12.5334 24.6668 14.0001ZM20.6668 11.3334V12.4001C20.6668 13.2001 20.1334 13.7334 19.3334 13.7334H18.2668V14.2667C18.2668 14.5334 18.2668 14.8001 18.2668 14.9334C18.2668 15.6001 18.4001 16.5334 18.6668 17.4667C18.6668 17.8667 18.5334 18.1334 18.1334 18.2667C17.7334 18.4001 17.4668 18.2667 17.4668 17.8667C17.3334 16.8001 17.2001 15.8667 17.0668 15.2001V14.6667C17.0668 14.4001 17.0668 14.1334 17.0668 13.7334H14.8001L14.6668 15.0667C15.3334 15.0667 16.0001 15.7334 16.0001 16.4001V20.5334C19.4668 21.6001 20.8001 23.7334 20.8001 27.7334V32.6667C20.8001 33.4667 20.2668 34.0001 19.4668 34.0001H11.3334C10.5334 34.0001 10.0001 33.4667 10.0001 32.6667V16.4001C10.0001 15.7334 10.5334 15.0667 11.3334 15.0667L11.2001 13.7334H10.9334C10.1334 13.7334 9.6001 13.2001 9.6001 12.4001C9.6001 12.2667 9.6001 12.1334 9.73343 11.8667L10.1334 10.8001C10.4001 10.4001 10.9334 10.0001 11.4668 10.0001H17.0668H17.2001H19.3334C20.1334 10.0001 20.6668 10.5334 20.6668 11.3334ZM14.5334 21.4667V16.4001H11.3334V32.6667H19.3334V27.7334C19.3334 24.2667 18.2668 22.6667 15.4668 21.7334L14.5334 21.4667ZM16.9334 11.3334H11.4668L10.9334 12.4001H16.9334V11.3334ZM19.3334 11.3334H18.2668V12.4001H19.3334V11.3334ZM27.3334 30.0001C27.3334 28.5334 28.5334 27.3334 30.0001 27.3334C28.5334 27.3334 27.3334 26.1334 27.3334 24.6667C27.3334 26.1334 26.1334 27.3334 24.6668 27.3334C26.1334 27.3334 27.3334 28.5334 27.3334 30.0001Z" fill="#3E3E52"/>
</svg>
