<svg width="20" height="20" viewBox="0 0 20 20" fill="none" xmlns="http://www.w3.org/2000/svg">
<mask id="mask0_3704_107621" style="mask-type:alpha" maskUnits="userSpaceOnUse" x="0" y="0" width="20" height="20">
<rect y="20" width="20" height="20" transform="rotate(-90 0 20)" fill="#C4C4C4"/>
</mask>
<g mask="url(#mask0_3704_107621)">
<path fill-rule="evenodd" clip-rule="evenodd" d="M0 9.99992C0 4.48554 4.48427 0 9.9971 0V0.000165983H10.0029C15.5157 0.000165983 20 4.4857 20 10.0001C20 15.5143 15.5157 20 10.0029 20C7.96935 20 6.08275 19.3946 4.50185 18.3481L0.658169 19.5766L1.90418 15.8612C0.705275 14.215 0 12.1869 0 9.99992ZM6.67927 4.17896C6.98934 4.1916 7.14446 4.21021 7.34913 4.70163C7.41524 4.86165 7.50606 5.0826 7.6056 5.32474C7.88906 6.01434 8.24317 6.87578 8.29824 6.99091C8.37265 7.14647 8.44723 7.35803 8.34166 7.56327C8.24931 7.76009 8.16772 7.85464 8.03191 8.01204C8.02173 8.02383 8.01124 8.03598 8.00043 8.04855C7.93404 8.1258 7.86881 8.19503 7.80374 8.26409C7.71677 8.3564 7.6301 8.44839 7.54136 8.55877C7.53888 8.56169 7.53639 8.56462 7.5339 8.56755C7.39333 8.73295 7.24056 8.91269 7.41741 9.21821C7.59721 9.52301 8.21753 10.5369 9.12952 11.3518C10.2119 12.317 11.1057 12.6795 11.5089 12.843C11.5448 12.8575 11.5769 12.8705 11.6048 12.8822C11.859 12.9881 12.1631 12.9632 12.3493 12.7641C12.551 12.546 12.7935 12.2048 13.0458 11.8499C13.0884 11.7899 13.1313 11.7295 13.1744 11.6692C13.3852 11.3705 13.6519 11.3331 13.9311 11.4388C14.2165 11.5384 15.7241 12.2849 16.0342 12.4405C16.0975 12.4723 16.1564 12.5007 16.2108 12.5269C16.4225 12.629 16.5643 12.6973 16.6235 12.8013C16.6981 12.9319 16.6981 13.5478 16.4437 14.2696C16.1893 14.991 15.178 15.5885 14.3716 15.7626C13.8196 15.8808 13.0998 15.9742 10.6743 14.9664C7.80129 13.7734 5.87553 10.9741 5.48383 10.4047C5.45264 10.3594 5.43118 10.3282 5.41974 10.3131C5.41538 10.3071 5.4102 10.3 5.40425 10.2918C5.20717 10.0216 4.16669 8.59506 4.16669 7.12154C4.16669 5.64611 4.89345 4.90546 5.21892 4.57377C5.22831 4.5642 5.23736 4.55497 5.24606 4.54608C5.50045 4.28482 5.92222 4.16667 6.3256 4.16667C6.44359 4.16725 6.56153 4.17135 6.67927 4.17896Z" fill="#02C988"/>
</g>
</svg>
